<?xml version="1.0" encoding="utf-8"?>
<!-- Generator: Adobe Illustrator 15.0.0, SVG Export Plug-In . SVG Version: 6.00 Build 0)  -->
<!DOCTYPE svg PUBLIC "-//W3C//DTD SVG 1.1//EN" "http://www.w3.org/Graphics/SVG/1.1/DTD/svg11.dtd">
<svg version="1.1" id="Layer_1" xmlns="http://www.w3.org/2000/svg" xmlns:xlink="http://www.w3.org/1999/xlink" x="0px" y="0px"
	 width="110px" height="40px" viewBox="0 0 110 40" enable-background="new 0 0 110 40" xml:space="preserve">
<circle fill="#31353E" cx="18.875" cy="20" r="17"/>
<path fill="#FFFFFF" d="M5.31,23.861l-0.124,0.005c-0.042,0.002-0.078,0.009-0.108,0.022c-0.031,0.011-0.067,0.018-0.107,0.019
	l-0.373,0.021c-0.063-0.017-0.156-0.022-0.281-0.016l-0.19-0.049l-0.033-0.031l-0.029,0.033l-0.033-0.027l0.065,0.06
	c-0.108-0.101-0.22-0.208-0.329-0.323c-0.11-0.119-0.22-0.227-0.329-0.321c-0.282-0.251-0.602-0.378-0.954-0.378
	C2.301,22.904,2.1,23.01,1.881,23.185c-0.218,0.178-0.399,0.456-0.543,0.833c0.012,0.204,0.04,0.424,0.084,0.659
	c0.045,0.235,0.113,0.453,0.209,0.652c0.023,0.062,0.049,0.139,0.076,0.244c0.031,0.181,0.102,0.343,0.213,0.479
	c-0.112,0.213-0.279,0.357-0.504,0.431c-0.224,0.074-0.45,0.107-0.679,0.1c0.283,0.603,0.589,1.146,0.917,1.631
	c0.329,0.485,0.68,0.954,1.061,1.406c0.398,0.431,0.799,0.846,1.205,1.244c0.407,0.397,0.817,0.782,1.232,1.152
	c0.871,0.733,1.781,1.412,2.729,2.038c0.948,0.624,1.944,1.188,2.989,1.685c0.661,0.312,1.361,0.581,2.099,0.81l0.631,0.149
	l0.663,0.179c0.504,0.096,0.973,0.158,1.412,0.198c0.958,0.069,1.903,0.014,2.836-0.172c0.933-0.189,1.766-0.579,2.5-1.174
	c0.733-0.598,1.304-1.319,1.713-2.164c0.407-0.845,0.679-1.736,0.812-2.669c0.026-0.248,0.05-0.492,0.067-0.729
	c0.018-0.238,0.041-0.48,0.068-0.729c0.026-0.247,0.034-0.496,0.02-0.743c-0.013-0.243-0.026-0.469-0.039-0.677
	c0.02-0.369,0.01-0.739-0.031-1.107c-0.042-0.367-0.083-0.726-0.123-1.072c0.061,0.367,0.112,0.732,0.155,1.102
	c0.042,0.366,0.063,0.749,0.065,1.136c0.042,0.393,0.049,0.864,0.018,1.421l-0.05,0.775c0.008,0.12,0.004,0.246-0.009,0.369
	c-0.015,0.124-0.04,0.249-0.071,0.376c-0.133,0.975-0.413,1.884-0.842,2.73s-1.021,1.559-1.776,2.137
	c-0.378,0.288-0.785,0.521-1.22,0.699c-0.437,0.179-0.878,0.323-1.329,0.431c-0.47,0.127-0.934,0.194-1.388,0.199
	c-0.457,0.006-0.935-0.019-1.436-0.073c-0.25-0.027-0.486-0.061-0.705-0.1c-0.221-0.039-0.446-0.083-0.677-0.131
	c-0.127-0.035-0.248-0.064-0.363-0.089c-0.116-0.024-0.225-0.045-0.33-0.06l-0.602-0.182c-0.359-0.124-0.708-0.26-1.049-0.402
	c-0.34-0.147-0.679-0.293-1.02-0.438c-2.15-0.97-4.095-2.169-5.834-3.595c-0.476-0.343-0.923-0.72-1.34-1.127
	c-0.417-0.411-0.824-0.83-1.221-1.261c-0.463-0.488-0.854-0.971-1.171-1.445c-0.405-0.556-0.748-1.112-1.028-1.671
	c-0.29,0.017-0.5,0.119-0.635,0.314c-0.151,0.254-0.138,0.673,0.041,1.262c0.154,0.525,0.477,1.104,0.968,1.735
	c0.497,0.714,1.115,1.358,1.853,1.934c0.72,0.641,1.468,1.225,2.246,1.756c0.776,0.532,1.478,1.019,2.104,1.458
	c0.411,0.284,0.826,0.576,1.247,0.869c0.422,0.296,0.867,0.578,1.339,0.839c0.471,0.261,0.956,0.506,1.456,0.736
	c0.501,0.229,1.058,0.438,1.669,0.631c0.297,0.106,0.651,0.217,1.061,0.326c0.411,0.111,0.814,0.187,1.21,0.228
	c0.209,0.027,0.414,0.052,0.611,0.071c0.198,0.021,0.401,0.047,0.61,0.075c0.208-0.011,0.414-0.012,0.622-0.004
	c0.207,0.008,0.415,0.007,0.622-0.004c0.828-0.047,1.622-0.197,2.386-0.456c0.763-0.258,1.463-0.634,2.098-1.12
	c0.657-0.47,1.227-1.037,1.708-1.699c0.036-0.087,0.089-0.166,0.156-0.241c0.069-0.076,0.122-0.156,0.158-0.24
	c0.056-0.107,0.112-0.191,0.172-0.257c0.059-0.065,0.104-0.159,0.139-0.286c0.092-0.19,0.175-0.371,0.25-0.537
	c0.073-0.17,0.157-0.35,0.249-0.541l0.185-0.597l0.15-0.624c0.052-0.188,0.093-0.386,0.122-0.594c0.03-0.207,0.059-0.414,0.09-0.621
	c0.029-0.207,0.049-0.415,0.058-0.622c0.008-0.207,0.017-0.421,0.026-0.647c-0.014-0.207-0.019-0.406-0.019-0.602
	c-0.001-0.194-0.007-0.396-0.018-0.601l-0.003-0.587l-0.057-0.459c-0.01-0.164-0.023-0.312-0.041-0.447
	c-0.018-0.132-0.032-0.281-0.042-0.442c-0.052-0.556-0.145-1.085-0.276-1.591c-0.205-1.039-0.416-2.043-0.637-3.019
	c-0.165-0.692-0.359-1.369-0.583-2.036c-0.224-0.666-0.47-1.331-0.735-1.995l-0.722-1.75c-0.075-0.222-0.147-0.425-0.22-0.604
	c-0.072-0.182-0.134-0.354-0.185-0.515c-0.002-0.041-0.015-0.082-0.038-0.121c-0.024-0.04-0.025-0.071-0.004-0.093
	c-0.021,0.021-0.042,0.023-0.064,0.003l-0.032-0.029c-0.065-0.059-0.069-0.12-0.011-0.184c-0.022-0.02-0.013-0.051,0.026-0.094
	l0.062-0.003l0.121-0.069c0.021,0.019,0.074,0.027,0.157,0.021c0.268-0.034,0.547-0.04,0.839-0.015s0.574,0.062,0.846,0.106
	c1.301,0.257,2.527,0.684,3.681,1.276c0.578,0.318,1.115,0.648,1.612,0.99c0.496,0.343,0.941,0.688,1.334,1.037
	c0.393,0.349,0.733,0.679,1.021,0.992s0.542,0.607,0.766,0.884c0.421,0.491,0.835,0.838,1.24,1.042
	c0.044,0.039,0.151,0.097,0.321,0.168c0.082-0.006,0.146,0.011,0.189,0.052c0.044,0.036,0.107,0.055,0.19,0.051
	c0.292,0.022,0.526-0.021,0.707-0.133c0.265-0.078,0.506-0.233,0.722-0.473c0.213-0.238,0.392-0.566,0.534-0.986
	c0.163-0.4,0.235-0.882,0.213-1.447c-0.021-0.565-0.155-1.168-0.398-1.814c0.08-0.046,0.195-0.119,0.344-0.22
	c0.15-0.101,0.275-0.185,0.375-0.251c0.327,0.639,0.585,1.171,0.775,1.592s0.375,0.751,0.554,0.987
	c0.296,0.456,0.608,0.676,0.94,0.657c0.165-0.008,0.322-0.054,0.475-0.135c0.15-0.08,0.306-0.166,0.467-0.258
	c0.14-0.069,0.292-0.128,0.456-0.179c0.163-0.05,0.32-0.028,0.471,0.066c-0.178-0.937-0.457-1.827-0.836-2.67
	c-0.38-0.842-0.808-1.631-1.286-2.366c-0.911-1.43-1.961-2.791-3.155-4.083c-0.154-0.135-0.353-0.283-0.6-0.443
	c-0.249-0.162-0.501-0.327-0.76-0.499c-0.258-0.17-0.51-0.325-0.757-0.467c-0.247-0.14-0.446-0.257-0.595-0.353
	c-1.05-0.579-2.126-1.075-3.227-1.486c-1.103-0.411-2.241-0.729-3.415-0.951c-0.585-0.091-1.181-0.171-1.786-0.241
	c-0.606-0.068-1.231-0.115-1.875-0.142c-0.331,0.019-0.662,0.037-0.992,0.055c-0.333,0.019-0.714,0.05-1.146,0.096
	c-0.843,0.109-1.693,0.31-2.547,0.604c-0.813,0.293-1.57,0.675-2.269,1.146c-0.699,0.471-1.309,1.04-1.831,1.707
	c-1.086,1.336-1.726,2.874-1.916,4.612c-0.04,0.394-0.059,0.807-0.055,1.237c0.002,0.431,0.028,0.862,0.073,1.292
	c0.01,0.206,0.034,0.41,0.066,0.614c0.032,0.204,0.074,0.408,0.128,0.609l0.05,0.338l0.076,0.241l0.119,0.457
	c0.08,0.304,0.18,0.597,0.3,0.878c0.119,0.281,0.229,0.564,0.327,0.846c0.07,0.14,0.119,0.271,0.147,0.393
	c0.028,0.122,0.076,0.252,0.147,0.393l0.315,0.631c0.334,0.764,0.65,1.521,0.954,2.276c0.302,0.756,0.567,1.506,0.796,2.256
	c0.273,0.785,0.469,1.505,0.589,2.156c0.05,0.164,0.085,0.33,0.107,0.504c0.02,0.173,0.055,0.341,0.106,0.504l0.012,0.246
	l0.006,0.061l0.006,0.123c0.016,0.289-0.078,0.455-0.282,0.51c-0.062,0.024-0.108,0.031-0.139,0.024
	c-0.032-0.01-0.068-0.012-0.11-0.011c-0.042,0.002-0.067-0.001-0.078-0.011c-0.012-0.01-0.038-0.014-0.078-0.01l-0.033-0.031
	l-0.033-0.028c-0.022-0.019-0.053-0.028-0.094-0.027L14.9,29.495l-0.222-0.081l0.444,0.161l0.097,0.088
	c0.044,0.038,0.108,0.056,0.19,0.052c0.149,0.053,0.292,0.045,0.434-0.025c0.12-0.089,0.194-0.236,0.224-0.444
	c0.02-0.022,0.027-0.074,0.023-0.157l0.024-0.09c-0.021-0.021-0.034-0.052-0.036-0.094l0.022-0.154
	c-0.011-0.208-0.039-0.415-0.083-0.63c-0.043-0.213-0.081-0.431-0.114-0.656c-0.198-0.914-0.463-1.85-0.798-2.81
	c-0.334-0.959-0.706-1.932-1.114-2.916c-0.216-0.502-0.442-1.014-0.679-1.537c-0.143-0.321-0.285-0.652-0.429-0.994
	c-0.145-0.341-0.258-0.705-0.342-1.092c-0.098-0.241-0.16-0.433-0.188-0.575c-0.05-0.163-0.103-0.365-0.158-0.608
	c-0.133-0.508-0.225-1.037-0.277-1.589c-0.049-0.513-0.064-1.031-0.042-1.556c0.021-0.525,0.091-1.049,0.206-1.571
	c-0.046-0.078-0.103-0.08-0.171-0.005c-0.067,0.076-0.138,0.394-0.21,0.953c0.072-0.559,0.143-0.877,0.21-0.953
	c0.069-0.075,0.125-0.073,0.171,0.005c-0.002-0.04,0.001-0.066,0.012-0.077c0.009-0.011,0.014-0.037,0.011-0.078
	c0.003,0.041-0.001,0.067-0.011,0.078c-0.011,0.011-0.014,0.037-0.012,0.077c0.046,0.081,0.098,0.166,0.155,0.254
	c0.056,0.091,0.149-0.003,0.279-0.277c-0.148,1.037-0.152,2.065-0.011,3.087c0.013,0.247,0.047,0.491,0.103,0.734
	c0.054,0.244,0.111,0.488,0.165,0.73c0.027,0.103,0.064,0.213,0.113,0.334l0.08,0.305c0.004,0.082,0.025,0.169,0.061,0.258
	c0.037,0.09,0.066,0.188,0.095,0.288c0.144,0.362,0.282,0.709,0.416,1.042c0.132,0.331,0.27,0.658,0.414,0.979l0.355,0.782
	l0.355,0.784c0.45,0.982,0.827,1.979,1.134,2.99c0.306,1.012,0.528,2.007,0.667,2.988l0.101,0.673l0.038,0.679
	c0.023,0.058,0.017,0.111-0.021,0.155l0.039,0.149c-0.018,0.064-0.032,0.101-0.04,0.11c-0.011,0.013-0.024,0.048-0.042,0.111
	c-0.046,0.271-0.158,0.501-0.333,0.696c-0.158,0.134-0.403,0.21-0.734,0.228l-0.372,0.02c-0.042,0.001-0.151-0.018-0.33-0.056
	c-0.178-0.043-0.384-0.088-0.614-0.14c0.014-0.103,0.054-0.231,0.119-0.391c0.062-0.157,0.123-0.288,0.178-0.396
	c-0.551-0.214-1.121-0.485-1.709-0.814c-0.59-0.326-1.16-0.695-1.712-1.108c-0.553-0.41-1.075-0.845-1.567-1.301
	c-0.492-0.455-0.927-0.909-1.305-1.36c-0.725-0.68-1.356-1.026-1.895-1.037c-0.016,0.105-0.002,0.23,0.038,0.382
	c0.04,0.153,0.095,0.32,0.168,0.502c0.166,0.379,0.417,0.779,0.751,1.191c0.293,0.417,0.633,0.824,1.019,1.224
	c0.385,0.399,0.796,0.793,1.233,1.182c0.456,0.367,0.911,0.71,1.365,1.033c0.454,0.326,0.936,0.619,1.449,0.879
	c0.257,0.149,0.508,0.283,0.754,0.403c0.246,0.12,0.497,0.234,0.751,0.344c0.254,0.108,0.494,0.204,0.716,0.283
	c0.222,0.082,0.396,0.14,0.523,0.174c0.252,0.067,0.525,0.113,0.816,0.139c0.292,0.024,0.578-0.032,0.861-0.172
	c0.303-0.121,0.532-0.317,0.681-0.594c0.151-0.275,0.25-0.548,0.297-0.818c0.029-0.208,0.041-0.372,0.033-0.495l0.02-0.219
	l-0.013-0.246l-0.041-0.151l0.019-0.216l-0.054-0.398l-0.111-0.859c-0.096-0.59-0.228-1.173-0.395-1.752
	c-0.167-0.576-0.34-1.157-0.519-1.744c0.194,0.481,0.366,0.977,0.52,1.482c0.153,0.505,0.296,1.015,0.429,1.52
	c0.077,0.262,0.132,0.516,0.168,0.76c0.034,0.246,0.079,0.49,0.134,0.735l0.053,0.398l0.014,0.244l0.029,0.493
	c0.017,0.678-0.138,1.24-0.464,1.692c-0.215,0.238-0.465,0.397-0.75,0.474c-0.286,0.078-0.566,0.093-0.838,0.046
	c-0.397-0.037-0.754-0.122-1.072-0.248c-0.148-0.052-0.371-0.133-0.667-0.24c-0.296-0.104-0.594-0.235-0.893-0.383
	c-0.573-0.233-1.144-0.517-1.712-0.844c-0.568-0.331-1.122-0.675-1.661-1.034c-0.519-0.382-1.024-0.781-1.514-1.197
	c-0.491-0.414-0.935-0.838-1.332-1.267c-0.181-0.237-0.358-0.465-0.537-0.682C6.357,25.517,6.21,25.3,6.095,25.08
	c-0.296-0.457-0.453-0.83-0.468-1.116c0.019-0.021,0.024-0.037,0.013-0.047c-0.012-0.011-0.007-0.023,0.012-0.046l-0.003-0.062
	l0.029-0.033c0.021,0.02,0.011,0.031-0.029,0.033c-0.084,0.004-0.156,0.018-0.215,0.043l0,0L5.31,23.861z"/>
<g>
	<path fill="#31353E" d="M53.57,13.96c0-0.816-0.034-1.734-0.272-2.448c-0.237-0.68-0.611-1.156-1.189-1.156
		c-0.952,0.034-1.258,1.02-1.258,2.481c0,0.85,0.374,1.734,0.918,2.686c0.544,0.952,1.258,1.938,1.972,2.992
		c0.85,1.258,1.7,2.549,2.346,3.808c0.646,1.258,1.088,2.55,1.088,3.909c0,1.666-0.271,3.23-1.054,4.386s-2.04,1.903-4.046,1.903
		c-2.346,0-3.671-0.883-4.419-2.243s-0.918-3.161-0.918-5.032l3.604-0.34c0,1.055,0.034,2.108,0.306,2.891
		c0.238,0.815,0.646,1.359,1.428,1.359c1.088,0,1.496-1.156,1.496-2.754c0-0.815-0.408-1.768-0.952-2.754
		c-0.306-0.476-0.612-0.985-0.952-1.496c-0.714-1.02-1.496-2.175-2.312-3.433s-1.428-2.55-1.802-3.875
		c-0.204-0.646-0.306-1.326-0.306-2.006c0-1.36,0.306-2.822,1.088-3.943c0.782-1.088,1.972-1.87,3.706-1.904
		c2.209-0.034,3.501,0.884,4.215,2.209c0.714,1.36,0.918,3.026,0.918,4.42L53.57,13.96z"/>
	<path fill="#31353E" d="M59.486,7.263h3.672v21.588h4.861v3.399h-8.533V7.263z"/>
	<path fill="#31353E" d="M79.613,7.263v19.854c-0.034,1.02-0.238,1.938-0.612,2.719c-0.306,0.68-0.782,1.326-1.462,1.836
		c-0.68,0.544-1.598,0.85-2.821,0.85c-1.225,0-2.176-0.306-2.856-0.85c-0.68-0.51-1.121-1.156-1.428-1.836
		c-0.374-0.781-0.578-1.699-0.611-2.719V7.263h3.671v19.854c0,0.713,0.171,1.189,0.511,1.562c0.17,0.171,0.407,0.272,0.714,0.272
		c0.646,0,0.951-0.407,1.088-0.918c0.102-0.237,0.136-0.544,0.136-0.917V7.263H79.613z"/>
	<path fill="#31353E" d="M82.641,7.263h3.671c1.598,0,3.196,0.408,4.42,1.563c1.224,1.156,2.04,3.06,2.04,5.916
		c0,2.856-0.816,4.726-2.04,5.881c-1.224,1.156-2.822,1.632-4.42,1.632v9.995h-3.671V7.263z M86.312,18.516
		c1.122,0,1.836-0.204,2.244-0.782c0.408-0.544,0.51-1.462,0.51-2.855c0-1.394-0.102-2.38-0.51-2.992
		c-0.408-0.612-1.122-0.884-2.244-0.884V18.516z"/>
	<path fill="#31353E" d="M99.266,15.252l0.102,0.238h0.068l0.102-0.238l1.836-7.989h3.604l-3.739,14.347V32.25h-3.672V21.609
		L93.826,7.263h3.604L99.266,15.252z"/>
</g>
</svg>
